<svg width="1445" height="353" viewBox="0 0 1445 353" fill="none" xmlns="http://www.w3.org/2000/svg">
<path d="M4.46497 347.042H269.883V271.08H134.445L188.025 232.851C247.558 192.139 266.41 156.889 266.41 111.709C266.41 46.6695 212.83 0 136.43 0C80.3695 0 36.2159 23.3348 0 67.0253L53.0836 119.653C78.8812 92.346 102.694 76.955 134.445 76.955C159.251 76.955 179.591 91.8495 179.591 115.184C179.591 136.037 168.677 154.903 130.476 183.699L4.46497 278.031V347.042Z" fill="black"/>
<path d="M540.719 347.042H625.553V5.95782H557.587L449.931 78.4445L483.17 137.526L540.719 101.779V347.042Z" fill="black"/>
<path d="M846.244 353C938.024 353 1003.01 280.017 1003.01 176.252C1003.01 72.9831 938.024 0 846.244 0C753.968 0 688.978 72.9831 688.978 176.252C688.978 280.017 753.968 353 846.244 353ZM846.244 276.045C805.067 276.045 776.293 234.34 776.293 176.252C776.293 118.163 805.067 76.955 846.244 76.955C886.925 76.955 915.699 118.163 915.699 176.252C915.699 234.34 886.925 276.045 846.244 276.045Z" fill="black"/>
<path d="M1214.81 347.042H1310.55L1445 70.0042V5.95782H1183.55V81.9198H1347.27L1214.81 347.042Z" fill="black"/>
<path d="M365.942 254.696C390.747 254.696 411.584 234.837 411.584 209.02C411.584 184.196 390.747 163.343 365.942 163.343C340.64 163.343 320.3 184.196 320.3 209.02C320.3 234.837 340.64 254.696 365.942 254.696Z" fill="black" fill-opacity="0.5"/>
<path d="M1094.6 254.696C1119.41 254.696 1140.24 234.837 1140.24 209.02C1140.24 184.196 1119.41 163.343 1094.6 163.343C1069.3 163.343 1048.96 184.196 1048.96 209.02C1048.96 234.837 1069.3 254.696 1094.6 254.696Z" fill="black" fill-opacity="0.5"/>
</svg>
